<svg viewBox="0 0 200 105" xmlns="http://www.w3.org/2000/svg" fill-rule="evenodd" clip-rule="evenodd" stroke-linejoin="round" stroke-miterlimit="1.414">
  <path d="M8.931 58.097S2.47 61.292.481 48.511c-3.195-19.598 10.012-42.25 25.137-37.99 2.698.71 5.397 3.196 5.752 5.61.852 7.03-2.415 22.368-2.415 22.368s12.71-27.977 24.427-22.865c6.249 2.84 2.485 14.344-1.207 23.859-2.343 6.32-4.26 12.426-4.26 12.426s9.23-19.03 19.527-23.432c2.91-1.065 4.757-.284 6.248 1.065 3.693 3.55-3.692 17.397-6.32 27.338-1.633 6.39-.355 9.728-.355 9.728s-6.177.497-7.455-3.337c-1.776-5.113 2.485-14.77 6.461-23.291 1.634-3.692 2.912-8.024 3.054-8.095 0 0-5.894 1.704-12.214 11.858C49.335 55.612 42.873 72.37 42.873 72.37s-7.172.78-7.882-2.912c-1.491-6.39 20.521-49.066 16.19-52.332-3.409-2.486-15.409 11.787-23.078 33.302-5.325 15.054-7.669 31.457-7.669 31.457s-5.538-.213-6.816-2.912c-3.267-7.385 15.976-61.35 12-66.534-.497-.852-10.51 0-16.048 14.13-8.166 20.025-.639 31.528-.639 31.528zm97.707-40.12c1.988-4.189 3.408-5.041 3.408-5.041s-5.112-2.485-8.095 2.485c-3.053 5.184-8.663 19.527-10.083 23.29-1.775-1.206-6.32-3.763-9.089-1.348-9.586 8.379-11.29 23.361-10.58 25.136.781 1.918 4.616 2.84 6.249 2.628 1.633-.284 7.882-9.444 7.882-9.444s-1.137 5.893-.213 7.598c1.633 2.769 5.041 1.49 5.041 1.49s1.917-.425 4.19-4.26c2.91-5.254 5.254-12.497 5.254-12.497s-2.06 4.19-5.964 8.876c-1.208 1.42-2.202 2.201-3.054 2.698 2.06-10.58 9.586-29.61 15.054-41.61zM86.046 41.34c2.84-3.124 4.757-.284 4.757-.284s-4.615 9.373-9.089 15.693c-1.846 2.627-3.763 4.331-3.763 4.331s.852-11.858 8.095-19.74zm45.303-23.361c1.988-4.19 3.408-5.042 3.408-5.042s-5.113-2.485-8.095 2.485c-3.053 5.184-8.663 19.527-10.083 23.29-1.775-1.206-6.32-3.763-9.09-1.348-9.585 8.379-11.29 23.361-10.58 25.136.782 1.918 4.616 2.84 6.25 2.628 1.633-.284 7.881-9.444 7.881-9.444s-1.136 5.893-.213 7.598c1.633 2.769 5.042 1.49 5.042 1.49s1.917-.425 4.19-4.26c2.91-5.254 5.254-12.497 5.254-12.497s-2.06 4.19-5.965 8.876c-1.207 1.42-2.201 2.201-3.053 2.698 2.06-10.58 9.586-29.61 15.054-41.61zm-20.593 23.361c2.84-3.124 4.758-.284 4.758-.284s-4.616 9.373-9.09 15.693c-1.845 2.627-3.763 4.331-3.763 4.331s.852-11.858 8.095-19.74zm37.847 4.758c.355-1.207-.568-2.273-.568-2.273s-.355.782-1.775 1.847c-1.136.923-3.48 2.272-3.48 2.272s2.344-8.521.569-10.935c-.781-1.136-4.9-2.983-7.598-2.557-7.953.995-11.006 12.71-11.006 12.71s-1.704-.283-2.556 2.912c-3.267 11.148 1.42 15.48 7.242 14.84 8.663-.993 12.285-13.065 12.285-13.065s.923-.284 3.195-1.988c1.846-1.42 3.48-3.053 3.692-3.763zm-9.16-8.663c.995.07-.142 12.426-2.059 13.917-1.065.781-5.68 1.491-5.467-1.065.284-7.314 6.532-12.852 7.526-12.852zm-10.367 15.408s-.213 1.492 3.338 1.847c1.988.213 3.905-.71 3.905-.71s-3.763 9.728-8.024 9.018c-2.911-.498.781-10.155.781-10.155zm30.037-38.699c2.13-3.124 8.165-2.13 8.165-2.13S166 12.58 165.361 14C161.03 23.587 154.213 45.6 154.213 45.6s8.237-16.83 14.77-12.782c2.13 1.42.994 6.888-2.699 11.432-2.769 3.409-6.106 5.468-6.106 5.468s.142 10.438 7.1 18.32c3.55 3.906 5.823 3.764 5.823 3.764s-3.408 4.189-7.953 0c-10.367-9.729-10.296-22.439-10.083-23.078.284-1.136 4.758-3.621 7.74-7.243 2.627-3.266 4.402-6.178 3.692-7.03-.568-.994-3.763.426-7.313 5.539-8.592 12.497-11.22 24.995-11.22 24.995s-4.26.639-5.112-3.55c-.568-2.13 14.911-45.233 16.26-47.292zm40.687 33.8s-.426-1.491-3.55-1.207c-4.403.355-9.586 3.763-13.705 6.745-2.414-3.479-22.651-12.426 5.61-18.106 1.917-.356 1.633.78 1.704.852.781-.426 2.201-10.439-9.8-5.681-22.296 8.876-3.478 19.953-1.703 25.492 0 0-8.024 5.538-15.551 13.35-6.249 6.39-12.071 14.769-12.426 20.094-.142 2.415 5.538 5.61 8.024 5.184 17.751-3.124 34.51-26.06 26.13-38.415 0 0 5.184-4.97 15.267-8.308zM179.492 59.09s2.414 7.243-6.959 18.888c-5.326 6.533-15.48 12.995-16.97 11.361-2.912-3.124 15.408-24.71 23.929-30.249z" fill-rule="nonzero"/>
</svg>
